<?xml version="1.0" encoding="UTF-8" standalone="yes"?><svg xmlns:inkscape="http://www.inkscape.org/namespaces/inkscape" xmlns:sodipodi="http://sodipodi.sourceforge.net/DTD/sodipodi-0.dtd" xmlns="http://www.w3.org/2000/svg" xmlns:svg="http://www.w3.org/2000/svg" height="512" style="zoom: 1;" id="notes" xml:space="preserve" width="512" version="1.1" viewBox="0 0 512 512"><g id="g1"><path d="M0.466201,265.518829 C-3.915067,75.770599 30.387215,0.238556 262.814941,1.070317 C447.955322,6.095914 516.168762,45.189159 511.546997,265.518829 C505.269867,431.320923 480.535004,512.458557 265.5383,511.078125 C46.576,510.765015 -0.210771,458.007416 0.466201,265.518829 Z" id="path6" fill="#222644"></path><path d="M142.02433,213.04535 l231.1931,-0.45633 c0.46052,120.32031 5.57072,125.58687 -13.81634,138.26948 H155.84065 C134.95788,340.71966 143.40597,328.19385 142.02433,213.04535 Z" id="path1" fill="#eeeeee"></path><path d="M142.12436,212.94954 c-0.72867,-38.48827 -0.19817,-51.10433 18.78228,-51.0137 l194.34955,0.45633 c19.52293,0.13449 18.43486,16.92064 17.95737,50.19685 z" id="path2" fill="#646577"></path><path d="M174.8425,152.75573 c4.42025,-10.09935 15.2097,-7.03153 18.06901,-0.16604 l0.11954,32.09785 c-1.10496,7.34663 -14.26627,11.74693 -18.12878,-0.40293 z" id="path3" stroke="#eeeeee" stroke-width="5" fill="#636576"></path><path d="M321.19941,152.75573 c4.42024,-10.09935 15.2097,-7.03153 18.069,-0.16604 l0.11955,32.09785 c-1.10495,7.34663 -14.26628,11.74693 -18.12877,-0.40293 z" id="path4" stroke="#eeeeee" stroke-width="5" fill="#636576"></path><path d="M244.976364,301.18219 l26.92994,-0.1499 l-6.13829,-25.79466 c16.52909,-10.97683 5.97876,-29.34194 -7.47811,-29.24956 c-12.69462,0.0871 -23.80883,17.67821 -7.39582,28.93713 z" id="path5" fill="#1d203a"></path></g><g id="g2"><path d="M181.48368,267.5455 l29.15117,12.75583 c-18.85821,40.44319 -10.89487,32.26643 -49.75676,33.03436  z " id="path1"></path><path d="M196.57071,230.58628 l44.15482,-19.62436 l31.72606,-70.64772 c-0.64105,-2.98343 -31.56787,-6.10792 -35.65093,2.28951  z " id="path2"></path><path d="M314.578491,229.866653 l-42.76485,-18.82305 l-15.634,-34.34264 l16.27195,-36.38676 c4.24774,1.34076 28.23177,59.75069 42.1269,89.55245  z " id="path3" fill="#477ebe"></path><path d="M301.792999,280.301331 l29.2046,-13.08291 l20.18338,46.11725 c-35.58445,-2.8242 -31.45627,10.8451 -49.38798,-33.03434  z " id="path4" fill="#477fbe"></path><path d="M186.71709,248.18297 l0.23195,8.58202 l43.60598,19.71547 l0.92778,-10.9015 l-29.68917,-13.4529 l28.52944,-12.75707 l0.46389,-11.13345  z " id="path5"></path><path d="M280.887451,228.003601 l0.4639,12.06123 l28.52944,12.06123 l-29.22529,12.98901 l0.23195,11.59734 l43.83792,-19.94742 l0.4639,-8.81397  z " id="path6"></path><path d="M260.01225,216.17432 l15.07653,0.23194 l-25.51414,73.52711 h-15.54042  z " id="path7" fill="#4780be"></path><text x="131.35284" style="font-size:65.3335px;font-family:Montserrat;-inkscape-font-specification:'Montserrat, @wght=652';font-variation-settings:'wght' 652;fill:#373d43;fill-opacity:1;fill-rule:nonzero;stroke-width:3.36381" y="408.87131" id="text8" xml:space="preserve" transform="scale(1.0312527,0.96969444)"><tspan id="tspan8" x="131.35284" y="408.87131" style="stroke-width:3.36381">ak</tspan></text><text x="207.16589" style="font-size:60.7307px;font-family:Montserrat;-inkscape-font-specification:'Montserrat, @wght=652';font-variation-settings:'wght' 652;fill:#4781be;fill-opacity:1;fill-rule:nonzero;stroke-width:3.12683" y="415.96631" id="text9" xml:space="preserve" transform="scale(1.0516104,0.9509225)"><tspan id="tspan9" x="207.16589" y="415.96631" style="stroke-width:3.12683">'sara</tspan></text></g></svg>